<?xml version="1.0" encoding="UTF-8" standalone="no"?>
<!DOCTYPE svg PUBLIC "-//W3C//DTD SVG 1.1//EN"
 "http://www.w3.org/Graphics/SVG/1.1/DTD/svg11.dtd">
<!-- Generated by graphviz version 2.28.0 (20120323.1535)
 -->
<!-- Title: G Pages: 1 -->
<svg width="716pt" height="490pt"
 viewBox="0.00 0.00 716.00 490.00" xmlns="http://www.w3.org/2000/svg" xmlns:xlink="http://www.w3.org/1999/xlink">
<g id="graph1" class="graph" transform="scale(1 1) rotate(0) translate(4 486)">
<title>G</title>
<polygon fill="white" stroke="white" points="-4,5 -4,-486 713,-486 713,5 -4,5"/>
<g id="graph2" class="cluster"><title>cluster_default</title>
<polyline fill="none" stroke="none" points="46,-44 688,-44 "/>
<path fill="none" stroke="none" d="M688,-44C694,-44 700,-50 700,-56"/>
<polyline fill="none" stroke="none" points="700,-56 700,-462 "/>
<path fill="none" stroke="none" d="M700,-462C700,-468 694,-474 688,-474"/>
<polyline fill="none" stroke="none" points="688,-474 46,-474 "/>
<path fill="none" stroke="none" d="M46,-474C40,-474 34,-468 34,-462"/>
<polyline fill="none" stroke="none" points="34,-462 34,-56 "/>
<path fill="none" stroke="none" d="M34,-56C34,-50 40,-44 46,-44"/>
</g>
<!-- \\gn2_newsletterconnect_Api -->
<g id="node2" class="node"><title>\\gn2_newsletterconnect_Api</title>
<a xlink:href="db_api.html" xlink:title="gn2_newsletterconnect_Api" target="_parent">
<polygon fill="none" stroke="black" points="645.527,-466 464.473,-466 464.473,-430 645.527,-430 645.527,-466"/>
<text text-anchor="middle" x="555" y="-443.6" font-family="Courier,monospace" font-size="11.00">gn2_newsletterconnect_Api</text>
</a>
</g>
<!-- \\gn2_newsletterconnect_Data_Result -->
<g id="node3" class="node"><title>\\gn2_newsletterconnect_Data_Result</title>
<a xlink:href="db_classes_Data_Result.html" xlink:title="gn2_newsletterconnect_Data_Result" target="_parent">
<polygon fill="none" stroke="black" points="671.836,-412 438.164,-412 438.164,-376 671.836,-376 671.836,-412"/>
<text text-anchor="middle" x="555" y="-389.6" font-family="Courier,monospace" font-size="11.00">gn2_newsletterconnect_Data_Result</text>
</a>
</g>
<!-- \\gn2_newsletterconnect_Mapper_Abstract -->
<g id="node4" class="node"><title>\\gn2_newsletterconnect_Mapper_Abstract</title>
<a xlink:href="db_classes_Mapper_Abstract.html" xlink:title="«abstract»&lt;br/&gt;gn2_newsletterconnect_Mapper_Abstract" target="_parent">
<polygon fill="none" stroke="black" points="303.5,-331 42.5,-331 42.5,-295 303.5,-295 303.5,-331"/>
<text text-anchor="start" x="140" y="-314.5" font-family="Courier,monospace" font-size="11.00">«abstract»</text>
<text text-anchor="start" x="51" y="-303.5" font-family="Courier,monospace" font-size="11.00">gn2_newsletterconnect_Mapper_Abstract</text>
</a>
</g>
<!-- \\gn2_newsletterconnect_Mapper_Categories -->
<g id="node5" class="node"><title>\\gn2_newsletterconnect_Mapper_Categories</title>
<a xlink:href="db_classes_Mapper_Categories.html" xlink:title="gn2_newsletterconnect_Mapper_Categories" target="_parent">
<polygon fill="none" stroke="black" points="691.942,-358 418.058,-358 418.058,-322 691.942,-322 691.942,-358"/>
<text text-anchor="middle" x="555" y="-335.6" font-family="Courier,monospace" font-size="11.00">gn2_newsletterconnect_Mapper_Categories</text>
</a>
</g>
<!-- \\gn2_newsletterconnect_Mapper_Categories&#45;&gt;\\gn2_newsletterconnect_Mapper_Abstract -->
<g id="edge3" class="edge"><title>\\gn2_newsletterconnect_Mapper_Categories&#45;&gt;\\gn2_newsletterconnect_Mapper_Abstract</title>
<path fill="none" stroke="black" d="M418.153,-330.348C384.218,-327.937 347.768,-325.347 313.653,-322.923"/>
<polygon fill="none" stroke="black" points="313.846,-319.428 303.623,-322.21 313.35,-326.41 313.846,-319.428"/>
</g>
<!-- \\gn2_newsletterconnect_Mapper_Products -->
<g id="node6" class="node"><title>\\gn2_newsletterconnect_Mapper_Products</title>
<a xlink:href="db_classes_Mapper_Products.html" xlink:title="gn2_newsletterconnect_Mapper_Products" target="_parent">
<polygon fill="none" stroke="black" points="685.24,-304 424.76,-304 424.76,-268 685.24,-268 685.24,-304"/>
<text text-anchor="middle" x="555" y="-281.6" font-family="Courier,monospace" font-size="11.00">gn2_newsletterconnect_Mapper_Products</text>
</a>
</g>
<!-- \\gn2_newsletterconnect_Mapper_Products&#45;&gt;\\gn2_newsletterconnect_Mapper_Abstract -->
<g id="edge5" class="edge"><title>\\gn2_newsletterconnect_Mapper_Products&#45;&gt;\\gn2_newsletterconnect_Mapper_Abstract</title>
<path fill="none" stroke="black" d="M424.819,-295.179C389.123,-297.715 350.226,-300.479 313.949,-303.056"/>
<polygon fill="none" stroke="black" points="313.519,-299.578 303.792,-303.778 314.015,-306.56 313.519,-299.578"/>
</g>
<!-- \\gn2_newsletterconnect_Output_Abstract -->
<g id="node7" class="node"><title>\\gn2_newsletterconnect_Output_Abstract</title>
<a xlink:href="db_classes_Output_Abstract.html" xlink:title="«abstract»&lt;br/&gt;gn2_newsletterconnect_Output_Abstract" target="_parent">
<polygon fill="none" stroke="black" points="303.5,-223 42.5,-223 42.5,-187 303.5,-187 303.5,-223"/>
<text text-anchor="start" x="140" y="-206.5" font-family="Courier,monospace" font-size="11.00">«abstract»</text>
<text text-anchor="start" x="51" y="-195.5" font-family="Courier,monospace" font-size="11.00">gn2_newsletterconnect_Output_Abstract</text>
</a>
</g>
<!-- \\gn2_newsletterconnect_Output_Csv -->
<g id="node8" class="node"><title>\\gn2_newsletterconnect_Output_Csv</title>
<a xlink:href="db_classes_Output_Csv.html" xlink:title="gn2_newsletterconnect_Output_Csv" target="_parent">
<polygon fill="none" stroke="black" points="668.734,-250 441.266,-250 441.266,-214 668.734,-214 668.734,-250"/>
<text text-anchor="middle" x="555" y="-227.6" font-family="Courier,monospace" font-size="11.00">gn2_newsletterconnect_Output_Csv</text>
</a>
</g>
<!-- \\gn2_newsletterconnect_Output_Csv&#45;&gt;\\gn2_newsletterconnect_Output_Abstract -->
<g id="edge7" class="edge"><title>\\gn2_newsletterconnect_Output_Csv&#45;&gt;\\gn2_newsletterconnect_Output_Abstract</title>
<path fill="none" stroke="black" d="M441.273,-223.99C401.265,-221.148 355.746,-217.914 313.755,-214.93"/>
<polygon fill="none" stroke="black" points="313.951,-211.435 303.728,-214.218 313.455,-218.418 313.951,-211.435"/>
</g>
<!-- \\gn2_newsletterconnect_Output_Json -->
<g id="node9" class="node"><title>\\gn2_newsletterconnect_Output_Json</title>
<a xlink:href="db_classes_Output_Json.html" xlink:title="gn2_newsletterconnect_Output_Json" target="_parent">
<polygon fill="none" stroke="black" points="671.836,-196 438.164,-196 438.164,-160 671.836,-160 671.836,-196"/>
<text text-anchor="middle" x="555" y="-173.6" font-family="Courier,monospace" font-size="11.00">gn2_newsletterconnect_Output_Json</text>
</a>
</g>
<!-- \\gn2_newsletterconnect_Output_Json&#45;&gt;\\gn2_newsletterconnect_Output_Abstract -->
<g id="edge9" class="edge"><title>\\gn2_newsletterconnect_Output_Json&#45;&gt;\\gn2_newsletterconnect_Output_Abstract</title>
<path fill="none" stroke="black" d="M437.923,-186.248C398.704,-189.034 354.507,-192.174 313.656,-195.077"/>
<polygon fill="none" stroke="black" points="313.351,-191.59 303.625,-195.79 313.847,-198.572 313.351,-191.59"/>
</g>
<!-- \\gn2_newsletterconnect_Linker -->
<g id="node10" class="node"><title>\\gn2_newsletterconnect_Linker</title>
<a xlink:href="db_gn2_newsletterconnect_oxoutput.html" xlink:title="gn2_newsletterconnect_Linker" target="_parent">
<polygon fill="none" stroke="black" points="655.33,-142 454.67,-142 454.67,-106 655.33,-106 655.33,-142"/>
<text text-anchor="middle" x="555" y="-119.6" font-family="Courier,monospace" font-size="11.00">gn2_newsletterconnect_Linker</text>
</a>
</g>
<!-- \\gn2_newsletterconnect_Oxoutput -->
<g id="node11" class="node"><title>\\gn2_newsletterconnect_Oxoutput</title>
<a xlink:href="db_gn2_newsletterconnect_oxoutput.html" xlink:title="gn2_newsletterconnect_Oxoutput" target="_parent">
<polygon fill="none" stroke="black" points="662.032,-88 447.968,-88 447.968,-52 662.032,-52 662.032,-88"/>
<text text-anchor="middle" x="555" y="-65.6" font-family="Courier,monospace" font-size="11.00">gn2_newsletterconnect_Oxoutput</text>
</a>
</g>
<!-- \\gn2_newsletterconnect_Oxoutput_parent -->
<g id="node17" class="node"><title>\\gn2_newsletterconnect_Oxoutput_parent</title>
<ellipse fill="none" stroke="black" cx="173" cy="-18" rx="173.024" ry="18"/>
<text text-anchor="middle" x="173" y="-12.4" font-family="Times,serif" font-size="14.00" fill="gray">\gn2_newsletterconnect_Oxoutput_parent</text>
</g>
<!-- \\gn2_newsletterconnect_Oxoutput&#45;&gt;\\gn2_newsletterconnect_Oxoutput_parent -->
<g id="edge11" class="edge"><title>\\gn2_newsletterconnect_Oxoutput&#45;&gt;\\gn2_newsletterconnect_Oxoutput_parent</title>
<path fill="none" stroke="black" d="M447.964,-54.3716C415.28,-49.6446 379.169,-44.513 346,-40 329.293,-37.7269 311.664,-35.3953 294.315,-33.1398"/>
<polygon fill="none" stroke="black" points="294.509,-29.6357 284.142,-31.8215 293.609,-36.5777 294.509,-29.6357"/>
</g>
</g>
</svg>
