<?xml version="1.0" encoding="UTF-8" standalone="no"?>
<!DOCTYPE svg PUBLIC "-//W3C//DTD SVG 1.1//EN"
 "http://www.w3.org/Graphics/SVG/1.1/DTD/svg11.dtd">
<!-- Generated by graphviz version 2.28.0 (20120323.1535)
 -->
<!-- Title: G Pages: 1 -->
<svg width="730pt" height="490pt"
 viewBox="0.00 0.00 730.00 490.00" xmlns="http://www.w3.org/2000/svg" xmlns:xlink="http://www.w3.org/1999/xlink">
<g id="graph1" class="graph" transform="scale(1 1) rotate(0) translate(4 486)">
<title>G</title>
<polygon fill="white" stroke="white" points="-4,5 -4,-486 727,-486 727,5 -4,5"/>
<g id="graph2" class="cluster"><title>cluster_default</title>
<polyline fill="none" stroke="none" points="53,-44 702,-44 "/>
<path fill="none" stroke="none" d="M702,-44C708,-44 714,-50 714,-56"/>
<polyline fill="none" stroke="none" points="714,-56 714,-462 "/>
<path fill="none" stroke="none" d="M714,-462C714,-468 708,-474 702,-474"/>
<polyline fill="none" stroke="none" points="702,-474 53,-474 "/>
<path fill="none" stroke="none" d="M53,-474C47,-474 41,-468 41,-462"/>
<polyline fill="none" stroke="none" points="41,-462 41,-56 "/>
<path fill="none" stroke="none" d="M41,-56C41,-50 47,-44 53,-44"/>
</g>
<!-- \\GN2_Newsletterconnect_Api -->
<g id="node2" class="node"><title>\\GN2_Newsletterconnect_Api</title>
<a xlink:href="api.html" xlink:title="GN2_Newsletterconnect_Api" target="_parent">
<polygon fill="none" stroke="black" points="659.527,-466 478.473,-466 478.473,-430 659.527,-430 659.527,-466"/>
<text text-anchor="middle" x="569" y="-443.6" font-family="Courier,monospace" font-size="11.00">GN2_Newsletterconnect_Api</text>
</a>
</g>
<!-- \\GN2_Newsletterconnect_Data_Result -->
<g id="node3" class="node"><title>\\GN2_Newsletterconnect_Data_Result</title>
<a xlink:href="classes.Data.Result.html" xlink:title="GN2_Newsletterconnect_Data_Result" target="_parent">
<polygon fill="none" stroke="black" points="685.836,-412 452.164,-412 452.164,-376 685.836,-376 685.836,-412"/>
<text text-anchor="middle" x="569" y="-389.6" font-family="Courier,monospace" font-size="11.00">GN2_Newsletterconnect_Data_Result</text>
</a>
</g>
<!-- \\GN2_Newsletterconnect_Mapper_Abstract -->
<g id="node4" class="node"><title>\\GN2_Newsletterconnect_Mapper_Abstract</title>
<a xlink:href="classes.Mapper.Abstract.html" xlink:title="«abstract»&lt;br/&gt;GN2_Newsletterconnect_Mapper_Abstract" target="_parent">
<polygon fill="none" stroke="black" points="310.5,-331 49.5,-331 49.5,-295 310.5,-295 310.5,-331"/>
<text text-anchor="start" x="147" y="-314.5" font-family="Courier,monospace" font-size="11.00">«abstract»</text>
<text text-anchor="start" x="58" y="-303.5" font-family="Courier,monospace" font-size="11.00">GN2_Newsletterconnect_Mapper_Abstract</text>
</a>
</g>
<!-- \\GN2_Newsletterconnect_Mapper_Categories -->
<g id="node5" class="node"><title>\\GN2_Newsletterconnect_Mapper_Categories</title>
<a xlink:href="classes.Mapper.Categories.html" xlink:title="GN2_Newsletterconnect_Mapper_Categories" target="_parent">
<polygon fill="none" stroke="black" points="705.942,-358 432.058,-358 432.058,-322 705.942,-322 705.942,-358"/>
<text text-anchor="middle" x="569" y="-335.6" font-family="Courier,monospace" font-size="11.00">GN2_Newsletterconnect_Mapper_Categories</text>
</a>
</g>
<!-- \\GN2_Newsletterconnect_Mapper_Categories&#45;&gt;\\GN2_Newsletterconnect_Mapper_Abstract -->
<g id="edge3" class="edge"><title>\\GN2_Newsletterconnect_Mapper_Categories&#45;&gt;\\GN2_Newsletterconnect_Mapper_Abstract</title>
<path fill="none" stroke="black" d="M432.102,-330.519C396.07,-328.005 357.104,-325.286 320.865,-322.758"/>
<polygon fill="none" stroke="black" points="320.939,-319.255 310.72,-322.05 320.452,-326.238 320.939,-319.255"/>
</g>
<!-- \\GN2_Newsletterconnect_Mapper_Products -->
<g id="node6" class="node"><title>\\GN2_Newsletterconnect_Mapper_Products</title>
<a xlink:href="classes.Mapper.Products.html" xlink:title="GN2_Newsletterconnect_Mapper_Products" target="_parent">
<polygon fill="none" stroke="black" points="699.24,-304 438.76,-304 438.76,-268 699.24,-268 699.24,-304"/>
<text text-anchor="middle" x="569" y="-281.6" font-family="Courier,monospace" font-size="11.00">GN2_Newsletterconnect_Mapper_Products</text>
</a>
</g>
<!-- \\GN2_Newsletterconnect_Mapper_Products&#45;&gt;\\GN2_Newsletterconnect_Mapper_Abstract -->
<g id="edge5" class="edge"><title>\\GN2_Newsletterconnect_Mapper_Products&#45;&gt;\\GN2_Newsletterconnect_Mapper_Abstract</title>
<path fill="none" stroke="black" d="M438.866,-295.009C401.033,-297.649 359.495,-300.547 321.019,-303.231"/>
<polygon fill="none" stroke="black" points="320.514,-299.758 310.782,-303.945 321.001,-306.741 320.514,-299.758"/>
</g>
<!-- \\GN2_Newsletterconnect_Output_Abstract -->
<g id="node7" class="node"><title>\\GN2_Newsletterconnect_Output_Abstract</title>
<a xlink:href="classes.Output.Abstract.html" xlink:title="«abstract»&lt;br/&gt;GN2_Newsletterconnect_Output_Abstract" target="_parent">
<polygon fill="none" stroke="black" points="310.5,-223 49.5,-223 49.5,-187 310.5,-187 310.5,-223"/>
<text text-anchor="start" x="147" y="-206.5" font-family="Courier,monospace" font-size="11.00">«abstract»</text>
<text text-anchor="start" x="58" y="-195.5" font-family="Courier,monospace" font-size="11.00">GN2_Newsletterconnect_Output_Abstract</text>
</a>
</g>
<!-- \\GN2_Newsletterconnect_Output_Csv -->
<g id="node8" class="node"><title>\\GN2_Newsletterconnect_Output_Csv</title>
<a xlink:href="classes.Output.Csv.html" xlink:title="GN2_Newsletterconnect_Output_Csv" target="_parent">
<polygon fill="none" stroke="black" points="682.734,-250 455.266,-250 455.266,-214 682.734,-214 682.734,-250"/>
<text text-anchor="middle" x="569" y="-227.6" font-family="Courier,monospace" font-size="11.00">GN2_Newsletterconnect_Output_Csv</text>
</a>
</g>
<!-- \\GN2_Newsletterconnect_Output_Csv&#45;&gt;\\GN2_Newsletterconnect_Output_Abstract -->
<g id="edge7" class="edge"><title>\\GN2_Newsletterconnect_Output_Csv&#45;&gt;\\GN2_Newsletterconnect_Output_Abstract</title>
<path fill="none" stroke="black" d="M455.284,-224.136C413.26,-221.204 365.041,-217.84 320.87,-214.758"/>
<polygon fill="none" stroke="black" points="320.846,-211.248 310.627,-214.044 320.359,-218.231 320.846,-211.248"/>
</g>
<!-- \\GN2_Newsletterconnect_Output_Json -->
<g id="node9" class="node"><title>\\GN2_Newsletterconnect_Output_Json</title>
<a xlink:href="classes.Output.Json.html" xlink:title="GN2_Newsletterconnect_Output_Json" target="_parent">
<polygon fill="none" stroke="black" points="685.836,-196 452.164,-196 452.164,-160 685.836,-160 685.836,-196"/>
<text text-anchor="middle" x="569" y="-173.6" font-family="Courier,monospace" font-size="11.00">GN2_Newsletterconnect_Output_Json</text>
</a>
</g>
<!-- \\GN2_Newsletterconnect_Output_Json&#45;&gt;\\GN2_Newsletterconnect_Output_Abstract -->
<g id="edge9" class="edge"><title>\\GN2_Newsletterconnect_Output_Json&#45;&gt;\\GN2_Newsletterconnect_Output_Abstract</title>
<path fill="none" stroke="black" d="M452.149,-186.083C410.831,-188.965 363.849,-192.243 320.736,-195.251"/>
<polygon fill="none" stroke="black" points="320.468,-191.761 310.736,-195.949 320.955,-198.744 320.468,-191.761"/>
</g>
<!-- \\GN2_Newsletterconnect -->
<g id="node10" class="node"><title>\\GN2_Newsletterconnect</title>
<a xlink:href="gn2_newsletterconnect_oxoutput.html" xlink:title="GN2_Newsletterconnect" target="_parent">
<polygon fill="none" stroke="black" points="646.123,-142 491.877,-142 491.877,-106 646.123,-106 646.123,-142"/>
<text text-anchor="middle" x="569" y="-119.6" font-family="Courier,monospace" font-size="11.00">GN2_Newsletterconnect</text>
</a>
</g>
<!-- \\GN2_Newsletterconnect_Oxoutput -->
<g id="node11" class="node"><title>\\GN2_Newsletterconnect_Oxoutput</title>
<a xlink:href="gn2_newsletterconnect_oxoutput.html" xlink:title="GN2_Newsletterconnect_Oxoutput" target="_parent">
<polygon fill="none" stroke="black" points="676.032,-88 461.968,-88 461.968,-52 676.032,-52 676.032,-88"/>
<text text-anchor="middle" x="569" y="-65.6" font-family="Courier,monospace" font-size="11.00">GN2_Newsletterconnect_Oxoutput</text>
</a>
</g>
<!-- \\GN2_Newsletterconnect_Oxoutput_Parent -->
<g id="node17" class="node"><title>\\GN2_Newsletterconnect_Oxoutput_Parent</title>
<ellipse fill="none" stroke="black" cx="180" cy="-18" rx="179.981" ry="18"/>
<text text-anchor="middle" x="180" y="-12.4" font-family="Times,serif" font-size="14.00" fill="gray">\GN2_Newsletterconnect_Oxoutput_Parent</text>
</g>
<!-- \\GN2_Newsletterconnect_Oxoutput&#45;&gt;\\GN2_Newsletterconnect_Oxoutput_Parent -->
<g id="edge11" class="edge"><title>\\GN2_Newsletterconnect_Oxoutput&#45;&gt;\\GN2_Newsletterconnect_Oxoutput_Parent</title>
<path fill="none" stroke="black" d="M461.978,-54.2708C429.294,-49.5398 393.18,-44.4313 360,-40 342.587,-37.6744 324.208,-35.3114 306.123,-33.0391"/>
<polygon fill="none" stroke="black" points="306.471,-29.5554 296.114,-31.7868 305.602,-36.5013 306.471,-29.5554"/>
</g>
</g>
</svg>
