<?xml version="1.0" encoding="UTF-8" standalone="no"?>
<!DOCTYPE svg PUBLIC "-//W3C//DTD SVG 1.1//EN"
 "http://www.w3.org/Graphics/SVG/1.1/DTD/svg11.dtd">
<!-- Generated by graphviz version 2.28.0 (20120323.1535)
 -->
<!-- Title: G Pages: 1 -->
<svg width="1256pt" height="997pt"
 viewBox="0.00 0.00 1256.00 997.00" xmlns="http://www.w3.org/2000/svg" xmlns:xlink="http://www.w3.org/1999/xlink">
<g id="graph1" class="graph" transform="scale(1 1) rotate(0) translate(4 993)">
<title>G</title>
<polygon fill="white" stroke="white" points="-4,5 -4,-993 1253,-993 1253,5 -4,5"/>
<g id="graph2" class="cluster"><title>cluster_global</title>
<polyline fill="none" stroke="gray" points="20,-206 1228,-206 "/>
<path fill="none" stroke="gray" d="M1228,-206C1234,-206 1240,-212 1240,-218"/>
<polyline fill="none" stroke="gray" points="1240,-218 1240,-969 "/>
<path fill="none" stroke="gray" d="M1240,-969C1240,-975 1234,-981 1228,-981"/>
<polyline fill="none" stroke="gray" points="1228,-981 20,-981 "/>
<path fill="none" stroke="gray" d="M20,-981C14,-981 8,-975 8,-969"/>
<polyline fill="none" stroke="gray" points="8,-969 8,-218 "/>
<path fill="none" stroke="gray" d="M8,-218C8,-212 14,-206 20,-206"/>
<text text-anchor="middle" x="624" y="-966" font-family="Times,serif" font-size="11.00" fill="gray">global</text>
</g>
<!-- \\GN2_NewsletterConnect_Api -->
<g id="node2" class="node"><title>\\GN2_NewsletterConnect_Api</title>
<a xlink:href="api.html" xlink:title="GN2_NewsletterConnect_Api" target="_parent">
<polygon fill="none" stroke="black" points="1155.53,-952 974.473,-952 974.473,-916 1155.53,-916 1155.53,-952"/>
<text text-anchor="middle" x="1065" y="-929.6" font-family="Courier,monospace" font-size="11.00">GN2_NewsletterConnect_Api</text>
</a>
</g>
<!-- \\GN2_NewsletterConnect_Data_Result -->
<g id="node3" class="node"><title>\\GN2_NewsletterConnect_Data_Result</title>
<a xlink:href="classes.Data.Result.html" xlink:title="GN2_NewsletterConnect_Data_Result" target="_parent">
<polygon fill="none" stroke="black" points="1181.84,-898 948.164,-898 948.164,-862 1181.84,-862 1181.84,-898"/>
<text text-anchor="middle" x="1065" y="-875.6" font-family="Courier,monospace" font-size="11.00">GN2_NewsletterConnect_Data_Result</text>
</a>
</g>
<!-- \\GN2_NewsletterConnect_Exception_MailingService -->
<g id="node4" class="node"><title>\\GN2_NewsletterConnect_Exception_MailingService</title>
<a xlink:href="classes.Exception.MailingService.html" xlink:title="GN2_NewsletterConnect_Exception_MailingService" target="_parent">
<polygon fill="none" stroke="black" points="1224.65,-466 905.35,-466 905.35,-430 1224.65,-430 1224.65,-466"/>
<text text-anchor="middle" x="1065" y="-443.6" font-family="Courier,monospace" font-size="11.00">GN2_NewsletterConnect_Exception_MailingService</text>
</a>
</g>
<!-- \\Exception -->
<g id="node22" class="node"><title>\\Exception</title>
<ellipse fill="none" stroke="black" cx="601" cy="-180" rx="52.7417" ry="18"/>
<text text-anchor="middle" x="601" y="-174.4" font-family="Times,serif" font-size="14.00" fill="gray">\Exception</text>
</g>
<!-- \\GN2_NewsletterConnect_Exception_MailingService&#45;&gt;\\Exception -->
<g id="edge3" class="edge"><title>\\GN2_NewsletterConnect_Exception_MailingService&#45;&gt;\\Exception</title>
<path fill="none" stroke="black" d="M909.965,-429.774C905.778,-427.141 901.773,-424.225 898,-421 820.113,-354.432 905.956,-266.069 826,-202 778.884,-164.246 707.044,-164.051 657.488,-169.83"/>
<polygon fill="none" stroke="black" points="656.741,-166.397 647.268,-171.143 657.633,-173.34 656.741,-166.397"/>
</g>
<!-- \\GN2_NewsletterConnect_Mailing_List -->
<g id="node5" class="node"><title>\\GN2_NewsletterConnect_Mailing_List</title>
<a xlink:href="classes.Mailing.List.html" xlink:title="GN2_NewsletterConnect_Mailing_List" target="_parent">
<polygon fill="none" stroke="black" points="1185.44,-790 944.563,-790 944.563,-754 1185.44,-754 1185.44,-790"/>
<text text-anchor="middle" x="1065" y="-767.6" font-family="Courier,monospace" font-size="11.00">GN2_NewsletterConnect_Mailing_List</text>
</a>
</g>
<!-- \\GN2_NewsletterConnect_Mailing_Recipient -->
<g id="node6" class="node"><title>\\GN2_NewsletterConnect_Mailing_Recipient</title>
<a xlink:href="classes.Mailing.Recipient.html" xlink:title="GN2_NewsletterConnect_Mailing_Recipient" target="_parent">
<polygon fill="none" stroke="black" points="1201.94,-736 928.058,-736 928.058,-700 1201.94,-700 1201.94,-736"/>
<text text-anchor="middle" x="1065" y="-713.6" font-family="Courier,monospace" font-size="11.00">GN2_NewsletterConnect_Mailing_Recipient</text>
</a>
</g>
<!-- \\GN2_NewsletterConnect_MailingService_Interface -->
<g id="node7" class="node"><title>\\GN2_NewsletterConnect_MailingService_Interface</title>
<a xlink:href="classes.MailingService.Interface.html" xlink:title="GN2_NewsletterConnect_MailingService_Interface" target="_parent">
<polygon fill="none" stroke="black" points="760.65,-817 441.35,-817 441.35,-781 760.65,-781 760.65,-817"/>
<text text-anchor="middle" x="601" y="-794.6" font-family="Courier,monospace" font-size="11.00">GN2_NewsletterConnect_MailingService_Interface</text>
</a>
</g>
<!-- \\GN2_NewsletterConnect_MailingService_Mailingwork -->
<g id="node8" class="node"><title>\\GN2_NewsletterConnect_MailingService_Mailingwork</title>
<a xlink:href="classes.MailingService.MailingWork.html" xlink:title="GN2_NewsletterConnect_MailingService_Mailingwork" target="_parent">
<polygon fill="none" stroke="black" points="1231.35,-844 898.648,-844 898.648,-808 1231.35,-808 1231.35,-844"/>
<text text-anchor="middle" x="1065" y="-821.6" font-family="Courier,monospace" font-size="11.00">GN2_NewsletterConnect_MailingService_Mailingwork</text>
</a>
</g>
<!-- \\GN2_NewsletterConnect_MailingService_Mailingwork&#45;&gt;\\GN2_NewsletterConnect_MailingService_Interface -->
<g id="edge23" class="edge"><title>\\GN2_NewsletterConnect_MailingService_Mailingwork&#45;&gt;\\GN2_NewsletterConnect_MailingService_Interface</title>
<path fill="none" stroke="black" stroke-dasharray="1,5" d="M898.512,-816.329C857.131,-813.91 812.693,-811.313 771.138,-808.885"/>
<polygon fill="none" stroke="black" points="771.108,-805.377 760.921,-808.288 770.7,-812.365 771.108,-805.377"/>
</g>
<!-- \\GN2_NewsletterConnect_Webservice_Curl -->
<g id="node16" class="node"><title>\\GN2_NewsletterConnect_Webservice_Curl</title>
<a xlink:href="classes.WebService.Curl.html" xlink:title="GN2_NewsletterConnect_Webservice_Curl" target="_parent">
<polygon fill="none" stroke="black" points="731.24,-871 470.76,-871 470.76,-835 731.24,-835 731.24,-871"/>
<text text-anchor="middle" x="601" y="-848.6" font-family="Courier,monospace" font-size="11.00">GN2_NewsletterConnect_Webservice_Curl</text>
</a>
</g>
<!-- \\GN2_NewsletterConnect_MailingService_Mailingwork&#45;&gt;\\GN2_NewsletterConnect_Webservice_Curl -->
<g id="edge5" class="edge"><title>\\GN2_NewsletterConnect_MailingService_Mailingwork&#45;&gt;\\GN2_NewsletterConnect_Webservice_Curl</title>
<path fill="none" stroke="black" d="M898.512,-835.671C847.038,-838.68 790.833,-841.964 741.332,-844.857"/>
<polygon fill="none" stroke="black" points="740.979,-841.372 731.2,-845.449 741.387,-848.36 740.979,-841.372"/>
</g>
<!-- \\GN2_NewsletterConnect_Mapper_Abstract -->
<g id="node9" class="node"><title>\\GN2_NewsletterConnect_Mapper_Abstract</title>
<a xlink:href="classes.Mapper.Abstract.html" xlink:title="GN2_NewsletterConnect_Mapper_Abstract" target="_parent">
<polygon fill="none" stroke="black" points="731.24,-655 470.76,-655 470.76,-619 731.24,-619 731.24,-655"/>
<text text-anchor="middle" x="601" y="-632.6" font-family="Courier,monospace" font-size="11.00">GN2_NewsletterConnect_Mapper_Abstract</text>
</a>
</g>
<!-- \\GN2_NewsletterConnect_Mapper_Categories -->
<g id="node10" class="node"><title>\\GN2_NewsletterConnect_Mapper_Categories</title>
<a xlink:href="classes.Mapper.Categories.html" xlink:title="GN2_NewsletterConnect_Mapper_Categories" target="_parent">
<polygon fill="none" stroke="black" points="1201.94,-682 928.058,-682 928.058,-646 1201.94,-646 1201.94,-682"/>
<text text-anchor="middle" x="1065" y="-659.6" font-family="Courier,monospace" font-size="11.00">GN2_NewsletterConnect_Mapper_Categories</text>
</a>
</g>
<!-- \\GN2_NewsletterConnect_Mapper_Categories&#45;&gt;\\GN2_NewsletterConnect_Mapper_Abstract -->
<g id="edge7" class="edge"><title>\\GN2_NewsletterConnect_Mapper_Categories&#45;&gt;\\GN2_NewsletterConnect_Mapper_Abstract</title>
<path fill="none" stroke="black" d="M928.195,-656.063C869.434,-652.629 800.712,-648.613 741.539,-645.155"/>
<polygon fill="none" stroke="black" points="741.556,-641.65 731.369,-644.561 741.147,-648.638 741.556,-641.65"/>
</g>
<!-- \\GN2_NewsletterConnect_Mapper_Products -->
<g id="node11" class="node"><title>\\GN2_NewsletterConnect_Mapper_Products</title>
<a xlink:href="classes.Mapper.Products.html" xlink:title="GN2_NewsletterConnect_Mapper_Products" target="_parent">
<polygon fill="none" stroke="black" points="1195.24,-628 934.76,-628 934.76,-592 1195.24,-592 1195.24,-628"/>
<text text-anchor="middle" x="1065" y="-605.6" font-family="Courier,monospace" font-size="11.00">GN2_NewsletterConnect_Mapper_Products</text>
</a>
</g>
<!-- \\GN2_NewsletterConnect_Mapper_Products&#45;&gt;\\GN2_NewsletterConnect_Mapper_Abstract -->
<g id="edge9" class="edge"><title>\\GN2_NewsletterConnect_Mapper_Products&#45;&gt;\\GN2_NewsletterConnect_Mapper_Abstract</title>
<path fill="none" stroke="black" d="M934.693,-617.557C874.51,-621.074 802.822,-625.264 741.43,-628.852"/>
<polygon fill="none" stroke="black" points="741.055,-625.367 731.276,-629.445 741.463,-632.355 741.055,-625.367"/>
</g>
<!-- \\GN2_NewsletterConnect_Output_Abstract -->
<g id="node12" class="node"><title>\\GN2_NewsletterConnect_Output_Abstract</title>
<a xlink:href="classes.Output.Abstract.html" xlink:title="GN2_NewsletterConnect_Output_Abstract" target="_parent">
<polygon fill="none" stroke="black" points="731.24,-547 470.76,-547 470.76,-511 731.24,-511 731.24,-547"/>
<text text-anchor="middle" x="601" y="-524.6" font-family="Courier,monospace" font-size="11.00">GN2_NewsletterConnect_Output_Abstract</text>
</a>
</g>
<!-- \\GN2_NewsletterConnect_Output_Csv -->
<g id="node13" class="node"><title>\\GN2_NewsletterConnect_Output_Csv</title>
<a xlink:href="classes.Output.Csv.html" xlink:title="GN2_NewsletterConnect_Output_Csv" target="_parent">
<polygon fill="none" stroke="black" points="1178.73,-574 951.266,-574 951.266,-538 1178.73,-538 1178.73,-574"/>
<text text-anchor="middle" x="1065" y="-551.6" font-family="Courier,monospace" font-size="11.00">GN2_NewsletterConnect_Output_Csv</text>
</a>
</g>
<!-- \\GN2_NewsletterConnect_Output_Csv&#45;&gt;\\GN2_NewsletterConnect_Output_Abstract -->
<g id="edge11" class="edge"><title>\\GN2_NewsletterConnect_Output_Csv&#45;&gt;\\GN2_NewsletterConnect_Output_Abstract</title>
<path fill="none" stroke="black" d="M951.278,-549.412C888.013,-545.715 808.539,-541.07 741.39,-537.146"/>
<polygon fill="none" stroke="black" points="741.338,-533.637 731.15,-536.548 740.929,-540.625 741.338,-533.637"/>
</g>
<!-- \\GN2_NewsletterConnect_Output_Json -->
<g id="node14" class="node"><title>\\GN2_NewsletterConnect_Output_Json</title>
<a xlink:href="classes.Output.Json.html" xlink:title="GN2_NewsletterConnect_Output_Json" target="_parent">
<polygon fill="none" stroke="black" points="1181.84,-520 948.164,-520 948.164,-484 1181.84,-484 1181.84,-520"/>
<text text-anchor="middle" x="1065" y="-497.6" font-family="Courier,monospace" font-size="11.00">GN2_NewsletterConnect_Output_Json</text>
</a>
</g>
<!-- \\GN2_NewsletterConnect_Output_Json&#45;&gt;\\GN2_NewsletterConnect_Output_Abstract -->
<g id="edge13" class="edge"><title>\\GN2_NewsletterConnect_Output_Json&#45;&gt;\\GN2_NewsletterConnect_Output_Abstract</title>
<path fill="none" stroke="black" d="M948.014,-508.778C885.344,-512.441 807.51,-516.99 741.544,-520.845"/>
<polygon fill="none" stroke="black" points="741.261,-517.355 731.482,-521.433 741.669,-524.343 741.261,-517.355"/>
</g>
<!-- \\GN2_NewsletterConnect_Webservice_Abstract -->
<g id="node15" class="node"><title>\\GN2_NewsletterConnect_Webservice_Abstract</title>
<a xlink:href="classes.WebService.Abstract.html" xlink:title="GN2_NewsletterConnect_Webservice_Abstract" target="_parent">
<polygon fill="none" stroke="black" points="303.144,-871 16.8557,-871 16.8557,-835 303.144,-835 303.144,-871"/>
<text text-anchor="middle" x="160" y="-848.6" font-family="Courier,monospace" font-size="11.00">GN2_NewsletterConnect_Webservice_Abstract</text>
</a>
</g>
<!-- \\GN2_NewsletterConnect_Webservice_Curl&#45;&gt;\\GN2_NewsletterConnect_Webservice_Abstract -->
<g id="edge15" class="edge"><title>\\GN2_NewsletterConnect_Webservice_Curl&#45;&gt;\\GN2_NewsletterConnect_Webservice_Abstract</title>
<path fill="none" stroke="black" d="M470.66,-853C421.341,-853 364.672,-853 313.405,-853"/>
<polygon fill="none" stroke="black" points="313.228,-849.5 303.228,-853 313.227,-856.5 313.228,-849.5"/>
</g>
<!-- \\GN2_NewsletterConnect_Account_Newsletter -->
<g id="node17" class="node"><title>\\GN2_NewsletterConnect_Account_Newsletter</title>
<a xlink:href="gn2_newsletterconnect_account_newsletter.html" xlink:title="GN2_NewsletterConnect_Account_Newsletter" target="_parent">
<polygon fill="none" stroke="black" points="1205.04,-412 924.957,-412 924.957,-376 1205.04,-376 1205.04,-412"/>
<text text-anchor="middle" x="1065" y="-389.6" font-family="Courier,monospace" font-size="11.00">GN2_NewsletterConnect_Account_Newsletter</text>
</a>
</g>
<!-- \\GN2_NewsletterConnect_Account_Newsletter_parent -->
<g id="node30" class="node"><title>\\GN2_NewsletterConnect_Account_Newsletter_parent</title>
<ellipse fill="none" stroke="black" cx="601" cy="-126" rx="224.487" ry="18"/>
<text text-anchor="middle" x="601" y="-120.4" font-family="Times,serif" font-size="14.00" fill="gray">\GN2_NewsletterConnect_Account_Newsletter_parent</text>
</g>
<!-- \\GN2_NewsletterConnect_Account_Newsletter&#45;&gt;\\GN2_NewsletterConnect_Account_Newsletter_parent -->
<g id="edge17" class="edge"><title>\\GN2_NewsletterConnect_Account_Newsletter&#45;&gt;\\GN2_NewsletterConnect_Account_Newsletter_parent</title>
<path fill="none" stroke="black" d="M924.681,-383.521C915.057,-379.224 906.014,-373.802 898,-367 821.491,-302.066 903.833,-216.341 826,-153 819.698,-147.872 812.947,-143.397 805.861,-139.504"/>
<polygon fill="none" stroke="black" points="807.218,-136.268 796.714,-134.878 804.058,-142.515 807.218,-136.268"/>
</g>
<!-- \\GN2_NewsletterConnect -->
<g id="node18" class="node"><title>\\GN2_NewsletterConnect</title>
<a xlink:href="gn2_newsletterconnect_oxoutput.html" xlink:title="GN2_NewsletterConnect" target="_parent">
<polygon fill="none" stroke="black" points="1142.12,-358 987.877,-358 987.877,-322 1142.12,-322 1142.12,-358"/>
<text text-anchor="middle" x="1065" y="-335.6" font-family="Courier,monospace" font-size="11.00">GN2_NewsletterConnect</text>
</a>
</g>
<!-- \\GN2_NewsletterConnect_OxOutput -->
<g id="node19" class="node"><title>\\GN2_NewsletterConnect_OxOutput</title>
<a xlink:href="gn2_newsletterconnect_oxoutput.html" xlink:title="GN2_NewsletterConnect_OxOutput" target="_parent">
<polygon fill="none" stroke="black" points="1172.03,-304 957.968,-304 957.968,-268 1172.03,-268 1172.03,-304"/>
<text text-anchor="middle" x="1065" y="-281.6" font-family="Courier,monospace" font-size="11.00">GN2_NewsletterConnect_OxOutput</text>
</a>
</g>
<!-- \\GN2_NewsletterConnect_OxOutput_parent -->
<g id="node32" class="node"><title>\\GN2_NewsletterConnect_OxOutput_parent</title>
<ellipse fill="none" stroke="black" cx="601" cy="-72" rx="183.998" ry="18"/>
<text text-anchor="middle" x="601" y="-66.4" font-family="Times,serif" font-size="14.00" fill="gray">\GN2_NewsletterConnect_OxOutput_parent</text>
</g>
<!-- \\GN2_NewsletterConnect_OxOutput&#45;&gt;\\GN2_NewsletterConnect_OxOutput_parent -->
<g id="edge19" class="edge"><title>\\GN2_NewsletterConnect_OxOutput&#45;&gt;\\GN2_NewsletterConnect_OxOutput_parent</title>
<path fill="none" stroke="black" d="M957.583,-284.411C936.242,-279.961 915.14,-272.155 898,-259 836.139,-211.523 888.828,-145.19 826,-99 814.953,-90.8784 802.739,-84.4731 789.884,-79.4664"/>
<polygon fill="none" stroke="black" points="791.012,-76.1527 780.417,-76.0635 788.644,-82.74 791.012,-76.1527"/>
</g>
<!-- \\GN2_NewsletterConnect_OxUser -->
<g id="node20" class="node"><title>\\GN2_NewsletterConnect_OxUser</title>
<a xlink:href="gn2_newsletterconnect_oxuser.html" xlink:title="GN2_NewsletterConnect_OxUser" target="_parent">
<polygon fill="none" stroke="black" points="1165.33,-250 964.67,-250 964.67,-214 1165.33,-214 1165.33,-250"/>
<text text-anchor="middle" x="1065" y="-227.6" font-family="Courier,monospace" font-size="11.00">GN2_NewsletterConnect_OxUser</text>
</a>
</g>
<!-- \\GN2_NewsletterConnect_OxUser_parent -->
<g id="node34" class="node"><title>\\GN2_NewsletterConnect_OxUser_parent</title>
<ellipse fill="none" stroke="black" cx="601" cy="-18" rx="175.315" ry="18"/>
<text text-anchor="middle" x="601" y="-12.4" font-family="Times,serif" font-size="14.00" fill="gray">\GN2_NewsletterConnect_OxUser_parent</text>
</g>
<!-- \\GN2_NewsletterConnect_OxUser&#45;&gt;\\GN2_NewsletterConnect_OxUser_parent -->
<g id="edge21" class="edge"><title>\\GN2_NewsletterConnect_OxUser&#45;&gt;\\GN2_NewsletterConnect_OxUser_parent</title>
<path fill="none" stroke="black" d="M1047.96,-213.981C1012.38,-175.373 922.357,-84.9423 826,-45 808.046,-37.5577 788.637,-31.9861 769.012,-27.8395"/>
<polygon fill="none" stroke="black" points="769.543,-24.3766 759.052,-25.8577 768.177,-31.242 769.543,-24.3766"/>
</g>
</g>
</svg>
